<svg xmlns="http://www.w3.org/2000/svg" xmlns:xlink="http://www.w3.org/1999/xlink" width="463.189" height="69.96" viewBox="0 0 463.189 69.96"><defs><radialGradient id="a" cx="-1.5" cy="-6.087" r="18.532" gradientTransform="translate(-0.121) scale(1.243 1)" gradientUnits="objectBoundingBox"><stop offset="0" stop-color="#05f29b"/><stop offset="0.967" stop-color="#0785f2"/><stop offset="1"/></radialGradient><radialGradient id="b" cx="-1.5" cy="-4.589" r="18.533" xlink:href="#a"/><radialGradient id="c" cx="-2.653" cy="-6.087" r="18.532" gradientTransform="translate(-0.029) scale(1.057 1)" xlink:href="#a"/><radialGradient id="d" cx="-4.01" cy="-9.086" r="18.532" gradientTransform="translate(0)" xlink:href="#a"/><radialGradient id="e" cx="-6.206" cy="-12.26" r="28.615" gradientTransform="translate(-0.001)" xlink:href="#a"/><radialGradient id="f" cx="-4.759" cy="-1.039" r="34.644" gradientTransform="translate(0.193) scale(0.615 1)" xlink:href="#a"/><radialGradient id="g" cx="-2.76" cy="-3.701" r="21.305" gradientTransform="translate(-0.313) scale(1.626 1)" xlink:href="#a"/><radialGradient id="h" cx="-2.653" cy="-4.589" r="18.532" gradientTransform="translate(-0.029) scale(1.057 1)" xlink:href="#a"/><radialGradient id="i" cx="-2.51" cy="-3.089" r="18.532" gradientTransform="translate(0)" xlink:href="#a"/><radialGradient id="j" cx="-2.51" cy="-7.587" r="18.532" gradientTransform="translate(0)" xlink:href="#a"/><radialGradient id="k" cx="-2.76" cy="-8.723" r="21.305" gradientTransform="translate(-0.313) scale(1.626 1)" xlink:href="#a"/><radialGradient id="l" cx="-6.206" cy="-4.77" r="28.615" gradientTransform="translate(-0.001)" xlink:href="#a"/><radialGradient id="m" cx="-4.01" cy="-1.591" r="18.532" gradientTransform="translate(0)" xlink:href="#a"/><radialGradient id="n" cx="-4.759" cy="-19.79" r="34.644" gradientTransform="translate(0.193) scale(0.615 1)" xlink:href="#a"/><radialGradient id="o" cx="-2.572" cy="-1.637" r="18.861" gradientTransform="translate(0)" xlink:href="#a"/><radialGradient id="p" cx="-2.572" cy="-9.247" r="18.861" gradientTransform="translate(0)" xlink:href="#a"/><radialGradient id="q" cx="-5.507" cy="-9.679" r="19.622" gradientTransform="translate(0.028) scale(0.944 1)" xlink:href="#a"/><radialGradient id="r" cx="-8.506" cy="-9.086" r="18.532" gradientTransform="translate(0)" xlink:href="#a"/><radialGradient id="s" cx="-10.186" cy="-9.247" r="18.861" gradientTransform="translate(0)" xlink:href="#a"/><radialGradient id="t" cx="-5.507" cy="-1.684" r="19.622" gradientTransform="translate(0.028) scale(0.944 1)" xlink:href="#a"/><radialGradient id="u" cx="-5.507" cy="-0.355" r="23.028" gradientTransform="translate(0.098) scale(0.805 1)" xlink:href="#a"/><radialGradient id="v" cx="-7.008" cy="-9.679" r="19.622" gradientTransform="translate(0.028) scale(0.944 1)" xlink:href="#a"/><radialGradient id="w" cx="-8.506" cy="-1.591" r="18.532" gradientTransform="translate(0)" xlink:href="#a"/><radialGradient id="x" cx="-13.715" cy="-4.77" r="28.615" gradientTransform="translate(-0.001)" xlink:href="#a"/><radialGradient id="y" cx="-9.779" cy="-19.79" r="34.644" gradientTransform="translate(0.193) scale(0.615 1)" xlink:href="#a"/><radialGradient id="z" cx="-9.779" cy="-1.039" r="34.644" gradientTransform="translate(0.193) scale(0.615 1)" xlink:href="#a"/><radialGradient id="aa" cx="-7.008" cy="-1.684" r="19.622" gradientTransform="translate(0.028) scale(0.944 1)" xlink:href="#a"/><radialGradient id="ab" cx="-14.326" cy="-4.589" r="18.532" gradientTransform="translate(-0.123) scale(1.245 1)" xlink:href="#a"/><radialGradient id="ac" cx="-7.008" cy="-0.355" r="23.028" gradientTransform="translate(0.098) scale(0.805 1)" xlink:href="#a"/><radialGradient id="ad" cx="-10.634" cy="-4.589" r="18.532" gradientTransform="translate(-0.029) scale(1.057 1)" xlink:href="#a"/><radialGradient id="ae" cx="-13.715" cy="-12.26" r="28.615" gradientTransform="translate(-0.001)" xlink:href="#a"/><radialGradient id="af" cx="-5.507" cy="-13.154" r="23.028" gradientTransform="translate(0.098) scale(0.805 1)" xlink:href="#a"/><radialGradient id="ag" cx="-10.634" cy="-6.087" r="18.532" gradientTransform="translate(-0.029) scale(1.057 1)" xlink:href="#a"/><radialGradient id="ah" cx="-14.326" cy="-6.087" r="18.532" gradientTransform="translate(-0.123) scale(1.245 1)" xlink:href="#a"/><radialGradient id="ai" cx="-10.186" cy="-1.637" r="18.861" gradientTransform="translate(0)" xlink:href="#a"/><radialGradient id="aj" cx="-10.008" cy="-7.587" r="18.532" gradientTransform="translate(0)" xlink:href="#a"/><radialGradient id="ak" cx="-10.008" cy="-3.089" r="18.532" gradientTransform="translate(0)" xlink:href="#a"/><radialGradient id="al" cx="-7.008" cy="-13.154" r="23.028" gradientTransform="translate(0.098) scale(0.805 1)" xlink:href="#a"/></defs><g transform="translate(-524 -121)"><path d="M541.157,215.467a9.976,9.976,0,0,1,8.945-5.355,9.534,9.534,0,0,1,4.5,1.012,9.148,9.148,0,0,1,3.074,2.519v-3.174h4.562v21.855h-4.562v-3.253a8.982,8.982,0,0,1-3.134,2.579,10.133,10.133,0,0,1-9.678-.417,10.265,10.265,0,0,1-3.709-4.045,12.448,12.448,0,0,1-1.368-5.89A12.1,12.1,0,0,1,541.157,215.467Zm15.588,1.983a6.546,6.546,0,0,0-2.439-2.539,6.389,6.389,0,0,0-3.252-.872,6.412,6.412,0,0,0-5.692,3.352,7.8,7.8,0,0,0-.932,3.907,8.145,8.145,0,0,0,.932,3.966,6.569,6.569,0,0,0,2.46,2.6,6.3,6.3,0,0,0,3.232.893,6.38,6.38,0,0,0,3.252-.873,6.5,6.5,0,0,0,2.439-2.559,8.027,8.027,0,0,0,.933-3.946A7.921,7.921,0,0,0,556.745,217.45Z" transform="translate(75.038 -64.95)" fill="#0869a6"/><path d="M585.819,211.184a7.616,7.616,0,0,1,3.193,3.172,10.44,10.44,0,0,1,1.15,5.078v12.89H585.68V220.107a6.343,6.343,0,0,0-1.468-4.5,5.226,5.226,0,0,0-4.006-1.566,5.29,5.29,0,0,0-4.025,1.566,6.291,6.291,0,0,0-1.488,4.5v12.217h-4.522V210.469h4.522v2.5a7.475,7.475,0,0,1,2.837-2.1,9.068,9.068,0,0,1,3.669-.754A9.793,9.793,0,0,1,585.819,211.184Z" transform="translate(75.038 -64.95)" fill="#0869a6"/><path d="M603.172,214.158v12.1a2.325,2.325,0,0,0,.575,1.765,2.858,2.858,0,0,0,1.964.535h2.777v3.768h-3.571a6.871,6.871,0,0,1-4.679-1.428q-1.627-1.428-1.627-4.64v-12.1h-2.579v-3.689h2.579v-5.434h4.561v5.434h5.316v3.689Z" transform="translate(75.038 -64.95)" fill="#0869a6"/><path d="M614.872,206.741a2.9,2.9,0,0,1,2.063-4.958,2.754,2.754,0,0,1,2.022.832,2.971,2.971,0,0,1,0,4.126,2.751,2.751,0,0,1-2.022.832A2.8,2.8,0,0,1,614.872,206.741Zm4.284,3.728v21.855h-4.522V210.469Z" transform="translate(75.038 -64.95)" fill="#0869a6"/><path d="M626.95,215.447a9.742,9.742,0,0,1,3.789-3.947,12.109,12.109,0,0,1,12.117.5,9.288,9.288,0,0,1,3.51,5.375h-4.878a5.162,5.162,0,0,0-1.9-2.539,5.628,5.628,0,0,0-3.292-.912,5.475,5.475,0,0,0-4.423,1.964,8.31,8.31,0,0,0-1.645,5.493,8.4,8.4,0,0,0,1.645,5.514,5.454,5.454,0,0,0,4.423,1.982,5.019,5.019,0,0,0,5.2-3.45h4.878a9.766,9.766,0,0,1-3.57,5.295,10.54,10.54,0,0,1-6.505,1.964,10.827,10.827,0,0,1-5.552-1.409,9.86,9.86,0,0,1-3.789-3.966,13.536,13.536,0,0,1,0-11.86Z" transform="translate(75.038 -64.95)" fill="#0869a6"/><path d="M656.758,231.273a10.1,10.1,0,0,1-3.927-3.966,11.963,11.963,0,0,1-1.428-5.93,11.74,11.74,0,0,1,1.467-5.91,10.153,10.153,0,0,1,4.006-3.967,12.285,12.285,0,0,1,11.345,0,10.159,10.159,0,0,1,4.006,3.967,11.751,11.751,0,0,1,1.468,5.91,11.491,11.491,0,0,1-1.508,5.91,10.43,10.43,0,0,1-4.105,3.986,11.832,11.832,0,0,1-5.732,1.409A11.184,11.184,0,0,1,656.758,231.273Zm8.864-3.351a6.36,6.36,0,0,0,2.48-2.5,8.028,8.028,0,0,0,.952-4.046,8.2,8.2,0,0,0-.913-4.026,6.162,6.162,0,0,0-2.419-2.479,6.61,6.61,0,0,0-3.253-.833,6.5,6.5,0,0,0-3.232.833,5.948,5.948,0,0,0-2.361,2.479,8.514,8.514,0,0,0-.872,4.026,7.665,7.665,0,0,0,1.8,5.454,5.965,5.965,0,0,0,4.541,1.924A6.727,6.727,0,0,0,665.622,227.922Z" transform="translate(75.038 -64.95)" fill="#0869a6"/><path d="M695.806,211.184A7.611,7.611,0,0,1,699,214.356a10.44,10.44,0,0,1,1.151,5.078v12.89h-4.483V220.107a6.343,6.343,0,0,0-1.468-4.5,5.225,5.225,0,0,0-4.005-1.566,5.291,5.291,0,0,0-4.026,1.566,6.291,6.291,0,0,0-1.488,4.5v12.217h-4.522V210.469h4.522v2.5a7.475,7.475,0,0,1,2.837-2.1,9.068,9.068,0,0,1,3.669-.754A9.788,9.788,0,0,1,695.806,211.184Z" transform="translate(75.038 -64.95)" fill="#0869a6"/><path d="M707.744,215.447a9.746,9.746,0,0,1,3.788-3.947,12.111,12.111,0,0,1,12.118.5,9.287,9.287,0,0,1,3.51,5.375h-4.878a5.162,5.162,0,0,0-1.9-2.539,5.63,5.63,0,0,0-3.292-.912,5.475,5.475,0,0,0-4.423,1.964,8.31,8.31,0,0,0-1.645,5.493,8.4,8.4,0,0,0,1.645,5.514,5.454,5.454,0,0,0,4.423,1.982,5.019,5.019,0,0,0,5.2-3.45h4.878a9.765,9.765,0,0,1-3.57,5.295,10.54,10.54,0,0,1-6.505,1.964,10.834,10.834,0,0,1-5.553-1.409,9.865,9.865,0,0,1-3.788-3.966,13.536,13.536,0,0,1,0-11.86Z" transform="translate(75.038 -64.95)" fill="#0869a6"/><path d="M753.536,223.082h-16.7a6.058,6.058,0,0,0,1.944,4.205,6.13,6.13,0,0,0,4.283,1.586,5.291,5.291,0,0,0,5.156-3.054H753.1a9.843,9.843,0,0,1-3.59,4.939,10.534,10.534,0,0,1-6.445,1.924,11.162,11.162,0,0,1-5.613-1.409,10.007,10.007,0,0,1-3.886-3.966,12.085,12.085,0,0,1-1.409-5.93,12.388,12.388,0,0,1,1.369-5.93,9.626,9.626,0,0,1,3.847-3.947,11.457,11.457,0,0,1,5.692-1.388,11.142,11.142,0,0,1,5.513,1.349,9.518,9.518,0,0,1,3.768,3.788,11.408,11.408,0,0,1,1.349,5.612A14.081,14.081,0,0,1,753.536,223.082Zm-4.561-3.648a5.146,5.146,0,0,0-1.785-4.007,6.386,6.386,0,0,0-4.324-1.507,5.806,5.806,0,0,0-4.005,1.487,6.219,6.219,0,0,0-1.984,4.027Z" transform="translate(75.038 -64.95)" fill="#0869a6"/><path d="M767.776,211.144a9.563,9.563,0,0,1,4.482-1.032,9.913,9.913,0,0,1,8.924,5.355,12.24,12.24,0,0,1,1.349,5.831,12.6,12.6,0,0,1-1.349,5.89,10.076,10.076,0,0,1-3.708,4.045,9.779,9.779,0,0,1-5.216,1.449,9.483,9.483,0,0,1-4.442-1.012,9.956,9.956,0,0,1-3.174-2.519v13.565H760.12V210.469h4.522v3.213A9.177,9.177,0,0,1,767.776,211.144ZM777,217.391a6.392,6.392,0,0,0-2.459-2.5,6.6,6.6,0,0,0-3.272-.853,6.425,6.425,0,0,0-3.233.872,6.509,6.509,0,0,0-2.459,2.539,7.911,7.911,0,0,0-.932,3.927,8.017,8.017,0,0,0,.932,3.946,6.447,6.447,0,0,0,5.692,3.432,6.373,6.373,0,0,0,3.272-.893,6.574,6.574,0,0,0,2.459-2.6,8.145,8.145,0,0,0,.933-3.966A7.8,7.8,0,0,0,777,217.391Z" transform="translate(75.038 -64.95)" fill="#0869a6"/><path d="M794.271,214.158v12.1a2.32,2.32,0,0,0,.575,1.765,2.858,2.858,0,0,0,1.964.535h2.776v3.768h-3.57a6.874,6.874,0,0,1-4.68-1.428q-1.628-1.428-1.627-4.64v-12.1h-2.578v-3.689h2.578v-5.434h4.562v5.434h5.315v3.689Z" transform="translate(75.038 -64.95)" fill="#0869a6"/><path d="M805.972,206.741a2.9,2.9,0,0,1,2.062-4.958,2.758,2.758,0,0,1,2.023.832,2.971,2.971,0,0,1,0,4.126,2.755,2.755,0,0,1-2.023.832A2.8,2.8,0,0,1,805.972,206.741Zm4.283,3.728v21.855h-4.521V210.469Z" transform="translate(75.038 -64.95)" fill="#0869a6"/><path d="M826.636,228.278l6.188-17.809h4.8l-8.329,21.855H823.9l-8.29-21.855h4.839Z" transform="translate(75.038 -64.95)" fill="#0869a6"/><path d="M846.906,231.273a10.1,10.1,0,0,1-3.927-3.966,11.962,11.962,0,0,1-1.429-5.93,11.73,11.73,0,0,1,1.468-5.91,10.14,10.14,0,0,1,4.006-3.967,12.283,12.283,0,0,1,11.344,0,10.146,10.146,0,0,1,4.006,3.967,11.741,11.741,0,0,1,1.468,5.91,11.491,11.491,0,0,1-1.508,5.91,10.434,10.434,0,0,1-4.1,3.986,11.838,11.838,0,0,1-5.733,1.409A11.183,11.183,0,0,1,846.906,231.273Zm8.864-3.351a6.359,6.359,0,0,0,2.479-2.5,8.029,8.029,0,0,0,.952-4.046,8.191,8.191,0,0,0-.913-4.026,6.156,6.156,0,0,0-2.419-2.479,6.605,6.605,0,0,0-3.253-.833,6.5,6.5,0,0,0-3.232.833,5.952,5.952,0,0,0-2.36,2.479,8.514,8.514,0,0,0-.872,4.026,7.665,7.665,0,0,0,1.8,5.454,5.965,5.965,0,0,0,4.541,1.924A6.733,6.733,0,0,0,855.77,227.922Z" transform="translate(75.038 -64.95)" fill="#0869a6"/><path d="M870.069,231.769a2.9,2.9,0,0,1,2.062-4.958,2.757,2.757,0,0,1,2.023.833,2.97,2.97,0,0,1,0,4.125,2.757,2.757,0,0,1-2.023.833A2.8,2.8,0,0,1,870.069,231.769Z" transform="translate(75.038 -64.95)" fill="#0869a6"/><path d="M881.709,215.447A9.74,9.74,0,0,1,885.5,211.5a12.111,12.111,0,0,1,12.118.5,9.288,9.288,0,0,1,3.51,5.375h-4.879a5.154,5.154,0,0,0-1.9-2.539,5.63,5.63,0,0,0-3.292-.912,5.474,5.474,0,0,0-4.423,1.964,8.31,8.31,0,0,0-1.645,5.493,8.4,8.4,0,0,0,1.645,5.514,5.452,5.452,0,0,0,4.423,1.982,5.017,5.017,0,0,0,5.2-3.45h4.879a9.766,9.766,0,0,1-3.57,5.295,10.54,10.54,0,0,1-6.505,1.964,10.833,10.833,0,0,1-5.553-1.409,9.858,9.858,0,0,1-3.788-3.966,13.537,13.537,0,0,1,0-11.86Z" transform="translate(75.038 -64.95)" fill="#0869a6"/><path d="M912.151,202.973v29.351h-4.522V202.973Z" transform="translate(75.038 -64.95)" fill="#0869a6"/><g transform="translate(75.038 -64.95)"><path d="M450.882,222.5a3.132,3.132,0,0,0-1.92.65,33.611,33.611,0,0,0,.77,5.43,3.149,3.149,0,1,0,1.15-6.08Z" fill="url(#a)"/><path d="M450.882,213.06a3.138,3.138,0,0,0-1.15.22,33.611,33.611,0,0,0-.77,5.43,3.151,3.151,0,1,0,1.92-5.65Z" fill="url(#b)"/><path d="M460.323,228.8a3.136,3.136,0,0,0,2.809-1.73,20.939,20.939,0,0,1-.769-3.82,3.15,3.15,0,1,0-2.04,5.55Z" fill="url(#c)"/><path d="M469.772,241.39a3.15,3.15,0,1,0,3.15,3.15A3.15,3.15,0,0,0,469.772,241.39Z" fill="url(#d)"/><path d="M469.772,238.25a3.1,3.1,0,0,0,.92-.14,20.949,20.949,0,0,1-3.93-3.94,3.223,3.223,0,0,0-.14.93A3.15,3.15,0,0,0,469.772,238.25Z" fill="url(#e)"/><path d="M467.442,190a3.156,3.156,0,0,0,5.48-2.13,1.619,1.619,0,0,0-.01-.22A34.937,34.937,0,0,0,467.442,190Z" fill="url(#f)"/><path d="M450.662,209.9a1.619,1.619,0,0,0,.22.01,3.156,3.156,0,0,0,2.13-5.48A34.937,34.937,0,0,0,450.662,209.9Z" fill="url(#g)"/><path d="M460.323,219.36a3.126,3.126,0,0,0,2.04-.75,20.939,20.939,0,0,1,.769-3.82,3.149,3.149,0,1,0-2.809,4.57Z" fill="url(#h)"/><path d="M460.323,203.61a3.15,3.15,0,1,0,3.149,3.15A3.15,3.15,0,0,0,460.323,203.61Z" fill="url(#i)"/><path d="M460.323,231.95a3.15,3.15,0,1,0,3.149,3.15A3.15,3.15,0,0,0,460.323,231.95Z" fill="url(#j)"/><path d="M450.882,231.95a1.619,1.619,0,0,0-.22.01,34.936,34.936,0,0,0,2.35,5.47,3.156,3.156,0,0,0-2.13-5.48Z" fill="url(#k)"/><path d="M470.692,203.75a3.1,3.1,0,0,0-.92-.14,3.15,3.15,0,0,0-3.15,3.15,3.223,3.223,0,0,0,.14.93A20.949,20.949,0,0,1,470.692,203.75Z" fill="url(#l)"/><path d="M469.772,194.17a3.15,3.15,0,1,0,3.15,3.15A3.15,3.15,0,0,0,469.772,194.17Z" fill="url(#m)"/><path d="M469.772,250.84a3.155,3.155,0,0,0-2.33,1.02,34.937,34.937,0,0,0,5.47,2.35,1.619,1.619,0,0,0,.01-.22A3.15,3.15,0,0,0,469.772,250.84Z" fill="url(#n)"/><path d="M461.162,194.28a37.4,37.4,0,0,0-3.88,3.88,3.152,3.152,0,1,0,3.88-3.88Z" fill="url(#o)"/><path d="M460.323,241.39a3.16,3.16,0,0,0-3.041,2.31,37.4,37.4,0,0,0,3.88,3.88,3.152,3.152,0,0,0-.839-6.19Z" fill="url(#p)"/><path d="M477.782,241.74a3.145,3.145,0,1,0,3.84.77A21.256,21.256,0,0,1,477.782,241.74Z" fill="url(#q)"/><path d="M498.1,241.39a3.15,3.15,0,1,0,3.15,3.15A3.15,3.15,0,0,0,498.1,241.39Z" fill="url(#r)"/><path d="M507.553,241.39a3.152,3.152,0,0,0-.841,6.19,37.4,37.4,0,0,0,3.88-3.88A3.158,3.158,0,0,0,507.553,241.39Z" fill="url(#s)"/><path d="M479.212,194.17a3.146,3.146,0,0,0-1.43,5.95,21.256,21.256,0,0,1,3.84-.77,3.108,3.108,0,0,0,.741-2.03A3.15,3.15,0,0,0,479.212,194.17Z" fill="url(#t)"/><path d="M476.282,186.72a3.149,3.149,0,1,0,5.43-.77A35.882,35.882,0,0,0,476.282,186.72Z" fill="url(#u)"/><path d="M490.092,241.74a21.222,21.222,0,0,1-3.84.77,3.107,3.107,0,0,0-.74,2.03,3.15,3.15,0,1,0,4.58-2.8Z" fill="url(#v)"/><path d="M498.1,194.17a3.15,3.15,0,1,0,3.15,3.15A3.15,3.15,0,0,0,498.1,194.17Z" fill="url(#w)"/><path d="M498.1,203.61a3.1,3.1,0,0,0-.92.14,20.984,20.984,0,0,1,3.931,3.94,3.257,3.257,0,0,0,.139-.93A3.15,3.15,0,0,0,498.1,203.61Z" fill="url(#x)"/><path d="M494.952,253.99a1.619,1.619,0,0,0,.01.22,34.9,34.9,0,0,0,5.47-2.35,3.156,3.156,0,0,0-5.48,2.13Z" fill="url(#y)"/><path d="M498.1,191.02a3.155,3.155,0,0,0,2.33-1.02,34.9,34.9,0,0,0-5.47-2.35,1.619,1.619,0,0,0-.01.22A3.15,3.15,0,0,0,498.1,191.02Z" fill="url(#z)"/><path d="M488.662,194.17a3.15,3.15,0,0,0-3.15,3.15,3.107,3.107,0,0,0,.74,2.03,21.222,21.222,0,0,1,3.84.77,3.146,3.146,0,0,0-1.43-5.95Z" fill="url(#aa)"/><path d="M516.992,219.36a3.132,3.132,0,0,0,1.92-.65,33.4,33.4,0,0,0-.77-5.43,3.147,3.147,0,1,0-1.15,6.08Z" fill="url(#ab)"/><path d="M516.992,209.91a1.618,1.618,0,0,0,.22-.01,34.693,34.693,0,0,0-2.34-5.46,3.15,3.15,0,0,0,2.12,5.47Z" fill="#00a2e3"/><path d="M486.162,185.95a3.154,3.154,0,1,0,5.43.77A35.685,35.685,0,0,0,486.162,185.95Z" fill="url(#ac)"/><path d="M507.553,213.06a3.141,3.141,0,0,0-2.811,1.73,20.938,20.938,0,0,1,.77,3.82,3.15,3.15,0,1,0,2.041-5.55Z" fill="url(#ad)"/><path d="M497.182,238.11a3.1,3.1,0,0,0,.92.14,3.15,3.15,0,0,0,3.15-3.15,3.257,3.257,0,0,0-.139-.93A20.984,20.984,0,0,1,497.182,238.11Z" fill="url(#ae)"/><path d="M479.212,250.84a3.144,3.144,0,0,0-2.93,4.3,35.882,35.882,0,0,0,5.43.77,3.152,3.152,0,0,0-2.5-5.07Z" fill="url(#af)"/><path d="M507.553,222.5a3.123,3.123,0,0,0-2.041.75,20.938,20.938,0,0,1-.77,3.82,3.149,3.149,0,1,0,2.811-4.57Z" fill="url(#ag)"/><path d="M513.852,235.1a3.117,3.117,0,0,0,1.02,2.32,34.694,34.694,0,0,0,2.34-5.46,1.618,1.618,0,0,0-.22-.01A3.148,3.148,0,0,0,513.852,235.1Z" fill="#0095ec"/><path d="M513.852,225.65a3.136,3.136,0,0,0,4.29,2.93,33.4,33.4,0,0,0,.77-5.43,3.145,3.145,0,0,0-5.06,2.5Z" fill="url(#ah)"/><path d="M507.553,200.47a3.158,3.158,0,0,0,3.039-2.31,37.4,37.4,0,0,0-3.88-3.88,3.152,3.152,0,0,0,.841,6.19Z" fill="url(#ai)"/><path d="M507.553,231.95a3.15,3.15,0,1,0,3.149,3.15A3.149,3.149,0,0,0,507.553,231.95Z" fill="url(#aj)"/><path d="M507.553,203.61a3.15,3.15,0,1,0,3.149,3.15A3.149,3.149,0,0,0,507.553,203.61Z" fill="url(#ak)"/><path d="M488.662,250.84a3.153,3.153,0,0,0-2.5,5.07,35.685,35.685,0,0,0,5.43-.77,3.144,3.144,0,0,0-2.93-4.3Z" fill="url(#al)"/></g></g></svg>